<?xml version="1.0" encoding="UTF-8" standalone="no"?>
<!DOCTYPE svg PUBLIC "-//W3C//DTD SVG 1.1//EN"
 "http://www.w3.org/Graphics/SVG/1.1/DTD/svg11.dtd">
<!-- Generated by graphviz version 2.34.0 (20130907.0228)
 -->
<!-- Title: %3 Pages: 1 -->
<svg width="1514pt" height="268pt"
 viewBox="0.00 0.00 1514.00 268.00" xmlns="http://www.w3.org/2000/svg" xmlns:xlink="http://www.w3.org/1999/xlink">
<g id="graph0" class="graph" transform="scale(1 1) rotate(0) translate(4 264)">
<title>%3</title>
<polygon fill="white" stroke="white" points="-4,4 -4,-264 1510,-264 1510,4 -4,4"/>
<!-- org_liveSense_service_apacheds -->
<g id="node1" class="node"><title>org_liveSense_service_apacheds</title>
<polygon fill="yellow" stroke="black" points="848,-223 848,-259 1034,-259 1034,-223 848,-223"/>
<text text-anchor="middle" x="941" y="-248.1" font-family="Arial" font-size="8.00">liveSense :: Service :: ApacheDS</text>
<polyline fill="none" stroke="black" points="848,-241 1034,-241 "/>
<text text-anchor="middle" x="941" y="-230.1" font-family="Arial" font-size="8.00">org.liveSense.service.apacheds(2&#45;SNAPSHOT)</text>
</g>
<!-- org_ops4j_pax_logging_pax_logging_api -->
<g id="node2" class="node"><title>org_ops4j_pax_logging_pax_logging_api</title>
<polygon fill="green" stroke="black" points="1148.5,-149 1148.5,-185 1321.5,-185 1321.5,-149 1148.5,-149"/>
<text text-anchor="middle" x="1235" y="-174.1" font-family="Arial" font-size="8.00">OPS4J Pax Logging &#45; API</text>
<polyline fill="none" stroke="black" points="1148.5,-167 1321.5,-167 "/>
<text text-anchor="middle" x="1235" y="-156.1" font-family="Arial" font-size="8.00">org.ops4j.pax.logging.pax&#45;logging&#45;api(1.7.0)</text>
</g>
<!-- org_liveSense_service_apacheds&#45;&gt;org_ops4j_pax_logging_pax_logging_api -->
<g id="edge1" class="edge"><title>org_liveSense_service_apacheds&#45;&gt;org_ops4j_pax_logging_pax_logging_api</title>
<path fill="none" stroke="yellow" d="M1010.67,-222.937C1054.26,-212.264 1110.52,-198.485 1155.79,-187.398"/>
<polygon fill="yellow" stroke="yellow" points="1156.69,-190.781 1165.57,-185.003 1155.03,-183.982 1156.69,-190.781"/>
</g>
<!-- org_liveSense_framework_apacheds -->
<g id="node3" class="node"><title>org_liveSense_framework_apacheds</title>
<polygon fill="green" stroke="black" points="549,-149 549,-185 747,-185 747,-149 549,-149"/>
<text text-anchor="middle" x="648" y="-174.1" font-family="Arial" font-size="8.00">liveSense :: Framework :: ApacheDS</text>
<polyline fill="none" stroke="black" points="549,-167 747,-167 "/>
<text text-anchor="middle" x="648" y="-156.1" font-family="Arial" font-size="8.00">org.liveSense.framework.apacheds(2&#45;SNAPSHOT)</text>
</g>
<!-- org_liveSense_service_apacheds&#45;&gt;org_liveSense_framework_apacheds -->
<g id="edge2" class="edge"><title>org_liveSense_service_apacheds&#45;&gt;org_liveSense_framework_apacheds</title>
<path fill="none" stroke="yellow" d="M871.563,-222.937C828.128,-212.264 772.059,-198.485 726.938,-187.398"/>
<polygon fill="yellow" stroke="yellow" points="727.738,-183.99 717.192,-185.003 726.068,-190.788 727.738,-183.99"/>
</g>
<!-- org_apache_felix_eventadmin -->
<g id="node4" class="node"><title>org_apache_felix_eventadmin</title>
<polygon fill="#3182bd" stroke="black" points="1263,-75 1263,-111 1403,-111 1403,-75 1263,-75"/>
<text text-anchor="middle" x="1333" y="-100.1" font-family="Arial" font-size="8.00">Apache Felix EventAdmin</text>
<polyline fill="none" stroke="black" points="1263,-93 1403,-93 "/>
<text text-anchor="middle" x="1333" y="-82.1" font-family="Arial" font-size="8.00">org.apache.felix.eventadmin(1.3.2)</text>
</g>
<!-- org_ops4j_pax_logging_pax_logging_api&#45;&gt;org_apache_felix_eventadmin -->
<g id="edge3" class="edge"><title>org_ops4j_pax_logging_pax_logging_api&#45;&gt;org_apache_felix_eventadmin</title>
<path fill="none" stroke="green" d="M1252.38,-148.937C1264.34,-139.412 1280.5,-127.415 1295.26,-117.063"/>
<polygon fill="green" stroke="green" points="1297.52,-119.759 1303.75,-111.19 1293.53,-114.002 1297.52,-119.759"/>
</g>
<!-- org_liveSense_framework_apacheds&#45;&gt;org_ops4j_pax_logging_pax_logging_api -->
<g id="edge11" class="edge"><title>org_liveSense_framework_apacheds&#45;&gt;org_ops4j_pax_logging_pax_logging_api</title>
<path fill="none" stroke="green" d="M747.171,-167C877.484,-167 1007.8,-167 1138.11,-167"/>
<polygon fill="green" stroke="green" points="1138.3,-170.5 1148.3,-167 1138.3,-163.5 1138.3,-170.5"/>
</g>
<!-- org_apache_commons_io -->
<g id="node5" class="node"><title>org_apache_commons_io</title>
<polygon fill="#3182bd" stroke="black" points="272,-75 272,-111 392,-111 392,-75 272,-75"/>
<text text-anchor="middle" x="332" y="-100.1" font-family="Arial" font-size="8.00">Apache Commons IO Bundle</text>
<polyline fill="none" stroke="black" points="272,-93 392,-93 "/>
<text text-anchor="middle" x="332" y="-82.1" font-family="Arial" font-size="8.00">org.apache.commons.io(1.4)</text>
</g>
<!-- org_liveSense_framework_apacheds&#45;&gt;org_apache_commons_io -->
<g id="edge4" class="edge"><title>org_liveSense_framework_apacheds&#45;&gt;org_apache_commons_io</title>
<path fill="none" stroke="green" d="M566.323,-149C520.655,-139.292 462.475,-126.594 402.251,-112.258"/>
<polygon fill="green" stroke="green" points="402.715,-108.771 392.175,-109.849 401.087,-115.579 402.715,-108.771"/>
</g>
<!-- org_apache_commons_collections -->
<g id="node6" class="node"><title>org_apache_commons_collections</title>
<polygon fill="#3182bd" stroke="black" points="410,-75 410,-111 566,-111 566,-75 410,-75"/>
<text text-anchor="middle" x="488" y="-100.1" font-family="Arial" font-size="8.00">Commons Collections</text>
<polyline fill="none" stroke="black" points="410,-93 566,-93 "/>
<text text-anchor="middle" x="488" y="-82.1" font-family="Arial" font-size="8.00">org.apache.commons.collections(3.2.1)</text>
</g>
<!-- org_liveSense_framework_apacheds&#45;&gt;org_apache_commons_collections -->
<g id="edge5" class="edge"><title>org_liveSense_framework_apacheds&#45;&gt;org_apache_commons_collections</title>
<path fill="none" stroke="green" d="M610.082,-148.937C587.647,-138.841 559.04,-125.968 535.158,-115.221"/>
<polygon fill="green" stroke="green" points="536.478,-111.977 525.923,-111.065 533.605,-118.361 536.478,-111.977"/>
</g>
<!-- org_apache_commons_lang -->
<g id="node7" class="node"><title>org_apache_commons_lang</title>
<polygon fill="#3182bd" stroke="black" points="584.5,-75 584.5,-111 711.5,-111 711.5,-75 584.5,-75"/>
<text text-anchor="middle" x="648" y="-100.1" font-family="Arial" font-size="8.00">Commons Lang</text>
<polyline fill="none" stroke="black" points="584.5,-93 711.5,-93 "/>
<text text-anchor="middle" x="648" y="-82.1" font-family="Arial" font-size="8.00">org.apache.commons.lang(2.6)</text>
</g>
<!-- org_liveSense_framework_apacheds&#45;&gt;org_apache_commons_lang -->
<g id="edge6" class="edge"><title>org_liveSense_framework_apacheds&#45;&gt;org_apache_commons_lang</title>
<path fill="none" stroke="green" d="M648,-148.937C648,-140.807 648,-130.876 648,-121.705"/>
<polygon fill="green" stroke="green" points="651.5,-121.441 648,-111.441 644.5,-121.441 651.5,-121.441"/>
</g>
<!-- org_apache_commons_pool -->
<g id="node8" class="node"><title>org_apache_commons_pool</title>
<polygon fill="#3182bd" stroke="black" points="730,-75 730,-111 864,-111 864,-75 730,-75"/>
<text text-anchor="middle" x="797" y="-100.1" font-family="Arial" font-size="8.00">Commons Pool</text>
<polyline fill="none" stroke="black" points="730,-93 864,-93 "/>
<text text-anchor="middle" x="797" y="-82.1" font-family="Arial" font-size="8.00">org.apache.commons.pool(1.5.6)</text>
</g>
<!-- org_liveSense_framework_apacheds&#45;&gt;org_apache_commons_pool -->
<g id="edge7" class="edge"><title>org_liveSense_framework_apacheds&#45;&gt;org_apache_commons_pool</title>
<path fill="none" stroke="green" d="M683.311,-148.937C704.018,-138.931 730.373,-126.196 752.493,-115.507"/>
<polygon fill="green" stroke="green" points="754.204,-118.567 761.685,-111.065 751.158,-112.265 754.204,-118.567"/>
</g>
<!-- org_apache_servicemix_bundles_antlr -->
<g id="node9" class="node"><title>org_apache_servicemix_bundles_antlr</title>
<polygon fill="#3182bd" stroke="black" points="0,-75 0,-111 174,-111 174,-75 0,-75"/>
<text text-anchor="middle" x="87" y="-100.1" font-family="Arial" font-size="8.00">Apache ServiceMix :: Bundles :: antlr</text>
<polyline fill="none" stroke="black" points="0,-93 174,-93 "/>
<text text-anchor="middle" x="87" y="-82.1" font-family="Arial" font-size="8.00">org.apache.servicemix.bundles.antlr(2.7.7.4)</text>
</g>
<!-- org_liveSense_framework_apacheds&#45;&gt;org_apache_servicemix_bundles_antlr -->
<g id="edge8" class="edge"><title>org_liveSense_framework_apacheds&#45;&gt;org_apache_servicemix_bundles_antlr</title>
<path fill="none" stroke="green" d="M548.859,-156.51C456.929,-147.244 316.123,-131.872 184.355,-112.151"/>
<polygon fill="green" stroke="green" points="184.486,-108.631 174.076,-110.601 183.442,-115.553 184.486,-108.631"/>
</g>
<!-- bcprov -->
<g id="node10" class="node"><title>bcprov</title>
<polygon fill="#3182bd" stroke="black" points="192.5,-75 192.5,-111 253.5,-111 253.5,-75 192.5,-75"/>
<text text-anchor="middle" x="223" y="-100.1" font-family="Arial" font-size="8.00">bcprov</text>
<polyline fill="none" stroke="black" points="192.5,-93 253.5,-93 "/>
<text text-anchor="middle" x="223" y="-82.1" font-family="Arial" font-size="8.00">bcprov(1.46)</text>
</g>
<!-- org_liveSense_framework_apacheds&#45;&gt;bcprov -->
<g id="edge9" class="edge"><title>org_liveSense_framework_apacheds&#45;&gt;bcprov</title>
<path fill="none" stroke="green" d="M548.681,-159.834C472.428,-153.314 364.812,-140.234 263.468,-111.659"/>
<polygon fill="green" stroke="green" points="264.259,-108.245 253.681,-108.845 262.325,-114.973 264.259,-108.245"/>
</g>
<!-- org_apache_servicemix_bundles_ehcache -->
<g id="node11" class="node"><title>org_apache_servicemix_bundles_ehcache</title>
<polygon fill="#3182bd" stroke="black" points="882.5,-75 882.5,-111 1071.5,-111 1071.5,-75 882.5,-75"/>
<text text-anchor="middle" x="977" y="-100.1" font-family="Arial" font-size="8.00">Apache ServiceMix :: Bundles :: ehcache</text>
<polyline fill="none" stroke="black" points="882.5,-93 1071.5,-93 "/>
<text text-anchor="middle" x="977" y="-82.1" font-family="Arial" font-size="8.00">org.apache.servicemix.bundles.ehcache(2.5.2.1)</text>
</g>
<!-- org_liveSense_framework_apacheds&#45;&gt;org_apache_servicemix_bundles_ehcache -->
<g id="edge10" class="edge"><title>org_liveSense_framework_apacheds&#45;&gt;org_apache_servicemix_bundles_ehcache</title>
<path fill="none" stroke="green" d="M725.968,-148.937C775.047,-138.196 838.491,-124.312 889.318,-113.189"/>
<polygon fill="green" stroke="green" points="890.286,-116.56 899.307,-111.003 888.79,-109.722 890.286,-116.56"/>
</g>
<!-- org_apache_mina_core -->
<g id="node12" class="node"><title>org_apache_mina_core</title>
<polygon fill="#3182bd" stroke="black" points="1089.5,-75 1089.5,-111 1206.5,-111 1206.5,-75 1089.5,-75"/>
<text text-anchor="middle" x="1148" y="-100.1" font-family="Arial" font-size="8.00">Apache MINA Core</text>
<polyline fill="none" stroke="black" points="1089.5,-93 1206.5,-93 "/>
<text text-anchor="middle" x="1148" y="-82.1" font-family="Arial" font-size="8.00">org.apache.mina.core(2.0.7)</text>
</g>
<!-- org_liveSense_framework_apacheds&#45;&gt;org_apache_mina_core -->
<g id="edge12" class="edge"><title>org_liveSense_framework_apacheds&#45;&gt;org_apache_mina_core</title>
<path fill="none" stroke="green" d="M747.253,-157.419C832.797,-149.14 959.677,-134.759 1079.09,-112.035"/>
<polygon fill="green" stroke="green" points="1079.98,-115.427 1089.14,-110.099 1078.66,-108.553 1079.98,-115.427"/>
</g>
<!-- org_apache_felix_eventadmin&#45;&gt;org_ops4j_pax_logging_pax_logging_api -->
<g id="edge13" class="edge"><title>org_apache_felix_eventadmin&#45;&gt;org_ops4j_pax_logging_pax_logging_api</title>
<path fill="none" stroke="#3182bd" d="M1315.46,-111.19C1303.46,-120.737 1287.29,-132.738 1272.54,-143.074"/>
<polygon fill="#3182bd" stroke="#3182bd" points="1270.3,-140.37 1264.06,-148.937 1274.28,-146.128 1270.3,-140.37"/>
</g>
<!-- org_apache_felix_configadmin -->
<g id="node13" class="node"><title>org_apache_felix_configadmin</title>
<polygon fill="#9ecae1" stroke="black" points="1340,-1 1340,-37 1506,-37 1506,-1 1340,-1"/>
<text text-anchor="middle" x="1423" y="-26.1" font-family="Arial" font-size="8.00">Apache Felix Configuration Admin Service</text>
<polyline fill="none" stroke="black" points="1340,-19 1506,-19 "/>
<text text-anchor="middle" x="1423" y="-8.1" font-family="Arial" font-size="8.00">org.apache.felix.configadmin(1.6.0)</text>
</g>
<!-- org_apache_felix_eventadmin&#45;&gt;org_apache_felix_configadmin -->
<g id="edge14" class="edge"><title>org_apache_felix_eventadmin&#45;&gt;org_apache_felix_configadmin</title>
<path fill="none" stroke="#3182bd" d="M1354.33,-74.937C1366.01,-65.5902 1380.67,-53.8625 1393.44,-43.6456"/>
<polygon fill="#3182bd" stroke="#3182bd" points="1395.89,-46.1701 1401.51,-37.19 1391.52,-40.704 1395.89,-46.1701"/>
</g>
<!-- org_apache_felix_metatype -->
<g id="node14" class="node"><title>org_apache_felix_metatype</title>
<polygon fill="#9ecae1" stroke="black" points="1176.5,-1 1176.5,-37 1307.5,-37 1307.5,-1 1176.5,-1"/>
<text text-anchor="middle" x="1242" y="-26.1" font-family="Arial" font-size="8.00">Apache Felix Metatype Service</text>
<polyline fill="none" stroke="black" points="1176.5,-19 1307.5,-19 "/>
<text text-anchor="middle" x="1242" y="-8.1" font-family="Arial" font-size="8.00">org.apache.felix.metatype(1.0.6)</text>
</g>
<!-- org_apache_felix_eventadmin&#45;&gt;org_apache_felix_metatype -->
<g id="edge15" class="edge"><title>org_apache_felix_eventadmin&#45;&gt;org_apache_felix_metatype</title>
<path fill="none" stroke="#3182bd" d="M1311.43,-74.937C1299.62,-65.5902 1284.8,-53.8625 1271.89,-43.6456"/>
<polygon fill="#3182bd" stroke="#3182bd" points="1273.74,-40.6501 1263.73,-37.19 1269.4,-46.1397 1273.74,-40.6501"/>
</g>
<!-- org_apache_servicemix_bundles_junit -->
<g id="node15" class="node"><title>org_apache_servicemix_bundles_junit</title>
<polygon fill="#9ecae1" stroke="black" points="136.5,-1 136.5,-37 309.5,-37 309.5,-1 136.5,-1"/>
<text text-anchor="middle" x="223" y="-26.1" font-family="Arial" font-size="8.00">Apache ServiceMix :: Bundles :: junit</text>
<polyline fill="none" stroke="black" points="136.5,-19 309.5,-19 "/>
<text text-anchor="middle" x="223" y="-8.1" font-family="Arial" font-size="8.00">org.apache.servicemix.bundles.junit(3.8.2.4)</text>
</g>
<!-- bcprov&#45;&gt;org_apache_servicemix_bundles_junit -->
<g id="edge16" class="edge"><title>bcprov&#45;&gt;org_apache_servicemix_bundles_junit</title>
<path fill="none" stroke="#3182bd" d="M223,-74.937C223,-66.8072 223,-56.8761 223,-47.7047"/>
<polygon fill="#3182bd" stroke="#3182bd" points="226.5,-47.4406 223,-37.4407 219.5,-47.4407 226.5,-47.4406"/>
</g>
<!-- org_apache_servicemix_bundles_ehcache&#45;&gt;org_ops4j_pax_logging_pax_logging_api -->
<g id="edge17" class="edge"><title>org_apache_servicemix_bundles_ehcache&#45;&gt;org_ops4j_pax_logging_pax_logging_api</title>
<path fill="none" stroke="#3182bd" d="M1038.15,-111.065C1075.93,-121.608 1124.56,-135.179 1164.03,-146.195"/>
<polygon fill="#3182bd" stroke="#3182bd" points="1163.28,-149.62 1173.86,-148.937 1165.17,-142.878 1163.28,-149.62"/>
</g>
<!-- org_apache_geronimo_specs_geronimo_servlet_3_0_spec -->
<g id="node16" class="node"><title>org_apache_geronimo_specs_geronimo_servlet_3_0_spec</title>
<polygon fill="#9ecae1" stroke="black" points="895,-1 895,-37 1125,-37 1125,-1 895,-1"/>
<text text-anchor="middle" x="1010" y="-26.1" font-family="Arial" font-size="8.00">Servlet 3.0</text>
<polyline fill="none" stroke="black" points="895,-19 1125,-19 "/>
<text text-anchor="middle" x="1010" y="-8.1" font-family="Arial" font-size="8.00">org.apache.geronimo.specs.geronimo&#45;servlet_3.0_spec(1.0)</text>
</g>
<!-- org_apache_servicemix_bundles_ehcache&#45;&gt;org_apache_geronimo_specs_geronimo_servlet_3_0_spec -->
<g id="edge18" class="edge"><title>org_apache_servicemix_bundles_ehcache&#45;&gt;org_apache_geronimo_specs_geronimo_servlet_3_0_spec</title>
<path fill="none" stroke="#3182bd" d="M984.821,-74.937C988.668,-66.5421 993.396,-56.2266 997.712,-46.81"/>
<polygon fill="#3182bd" stroke="#3182bd" points="1001.02,-47.9896 1002.01,-37.4407 994.658,-45.073 1001.02,-47.9896"/>
</g>
<!-- org_apache_geronimo_specs_geronimo_jms_1_1_spec -->
<g id="node17" class="node"><title>org_apache_geronimo_specs_geronimo_jms_1_1_spec</title>
<polygon fill="#9ecae1" stroke="black" points="651,-1 651,-37 877,-37 877,-1 651,-1"/>
<text text-anchor="middle" x="764" y="-26.1" font-family="Arial" font-size="8.00">geronimo&#45;jms_1.1_spec</text>
<polyline fill="none" stroke="black" points="651,-19 877,-19 "/>
<text text-anchor="middle" x="764" y="-8.1" font-family="Arial" font-size="8.00">org.apache.geronimo.specs.geronimo&#45;jms_1.1_spec(1.1.1)</text>
</g>
<!-- org_apache_servicemix_bundles_ehcache&#45;&gt;org_apache_geronimo_specs_geronimo_jms_1_1_spec -->
<g id="edge19" class="edge"><title>org_apache_servicemix_bundles_ehcache&#45;&gt;org_apache_geronimo_specs_geronimo_jms_1_1_spec</title>
<path fill="none" stroke="#3182bd" d="M926.522,-74.937C895.863,-64.5733 856.544,-51.2825 824.26,-40.3697"/>
<polygon fill="#3182bd" stroke="#3182bd" points="825.079,-36.9518 814.484,-37.0651 822.837,-43.5832 825.079,-36.9518"/>
</g>
<!-- org_apache_mina_core&#45;&gt;org_ops4j_pax_logging_pax_logging_api -->
<g id="edge20" class="edge"><title>org_apache_mina_core&#45;&gt;org_ops4j_pax_logging_pax_logging_api</title>
<path fill="none" stroke="#3182bd" d="M1168.77,-111.19C1180.09,-120.558 1194.27,-132.29 1206.6,-142.493"/>
<polygon fill="#3182bd" stroke="#3182bd" points="1204.45,-145.258 1214.38,-148.937 1208.91,-139.865 1204.45,-145.258"/>
</g>
<!-- org_apache_felix_configadmin&#45;&gt;org_ops4j_pax_logging_pax_logging_api -->
<g id="edge21" class="edge"><title>org_apache_felix_configadmin&#45;&gt;org_ops4j_pax_logging_pax_logging_api</title>
<path fill="none" stroke="#9ecae1" d="M1426.05,-37.0719C1428.64,-57.34 1429.55,-91.0289 1412,-112 1391.99,-135.906 1361.72,-149.448 1331.85,-157.048"/>
<polygon fill="#9ecae1" stroke="#9ecae1" points="1330.69,-153.724 1321.74,-159.404 1332.28,-160.541 1330.69,-153.724"/>
</g>
<!-- org_apache_felix_metatype&#45;&gt;org_ops4j_pax_logging_pax_logging_api -->
<g id="edge22" class="edge"><title>org_apache_felix_metatype&#45;&gt;org_ops4j_pax_logging_pax_logging_api</title>
<path fill="none" stroke="#9ecae1" d="M1241.17,-37.3779C1239.96,-62.4981 1237.72,-109.19 1236.3,-138.872"/>
<polygon fill="#9ecae1" stroke="#9ecae1" points="1232.8,-138.81 1235.82,-148.966 1239.79,-139.145 1232.8,-138.81"/>
</g>
</g>
</svg>
